<svg width="186" height="28" viewBox="0 0 186 28" fill="none" xmlns="http://www.w3.org/2000/svg">
<path d="M36.1943 7.7379L39.0055 14.7624L45.6504 16.6969H32.6164L36.1943 7.7379ZM32.359 0L19.9382 27.9998H28.067L30.2648 22.5523H42.1747L44.3721 27.9998H52.653L40.181 0H32.359Z" fill="#0A4BB8"/>
<path d="M26.0506 0L25.3755 1.50919L24.4124 1.08172L24.9246 0H22.4512C22.1572 0.0492146 21.8798 0.170108 21.6438 0.351963C21.4078 0.533817 21.2203 0.771014 21.0981 1.04253L9.05481 27.9998H12.3533L12.992 26.6499L13.9519 27.0755L13.5275 27.9998H15.5249C15.8188 28.0047 16.1079 27.9251 16.3576 27.7703C16.6074 27.6156 16.8072 27.3923 16.9332 27.1271L16.9378 27.1165L28.9749 0H26.0506ZM14.9925 24.7543L14.0295 24.3287L15.0685 22.0041L16.0318 22.43L14.9925 24.7543ZM17.0678 20.1026L16.1075 19.6798L17.1466 17.3524L18.1071 17.7802L17.0678 20.1026ZM19.1465 15.4568L18.1831 15.0312L19.2231 12.7066L20.183 13.1294L19.1465 15.4568ZM21.2218 10.8048L20.2615 10.3792L21.2978 8.05803L22.2608 8.48362L21.2218 10.8048ZM23.2971 6.15933L22.3371 5.73342L23.3731 3.40913L24.3364 3.83193L23.2971 6.15933Z" fill="#03002F"/>
<path d="M0 0.00341948H7.12003C7.35852 0.00305785 7.59257 0.0677861 7.7969 0.190609C8.00122 0.313432 8.16804 0.489679 8.27934 0.700303L15.2941 13.9887L8.49369 13.9918C8.16349 13.9922 7.83945 13.9025 7.55648 13.7326C7.27352 13.5626 7.04236 13.3188 6.88792 13.0274L0 0.00341948Z" fill="#0A4BB8"/>
<path d="M46.5391 0L47.213 1.50919L48.175 1.08048L47.6622 0H50.1338C50.4275 0.0493429 50.7046 0.170307 50.9403 0.352165C51.176 0.534022 51.3631 0.771152 51.485 1.04253L63.513 27.9985H60.2189L59.5796 26.6486L58.621 27.0742L59.0447 27.9985H57.0507C56.757 28.0036 56.4681 27.924 56.2186 27.7692C55.9691 27.6144 55.7696 27.3911 55.644 27.1259L55.6393 27.1153L43.6194 0H46.5391ZM57.5828 24.7543L58.5449 24.3287L57.5068 22.0041L56.545 22.43L57.5828 24.7543ZM55.51 20.1026L56.469 19.6798L55.4309 17.3524L54.4723 17.7802L55.51 20.1026ZM53.4335 15.4568L54.3956 15.0312L53.3578 12.7066L52.3988 13.1294L53.4335 15.4568ZM51.3617 10.8048L52.3203 10.3792L51.2856 8.05803L50.3235 8.48362L51.3617 10.8048ZM49.2898 6.15933L50.2488 5.73342L49.2138 3.40913L48.252 3.83193L49.2898 6.15933Z" fill="#03002F"/>
<path d="M72.5944 0.0392228L65.4822 2.3086e-05C65.2439 -0.00139107 65.0098 0.0621887 64.805 0.183903C64.6003 0.305618 64.4327 0.480846 64.3204 0.690684L57.2408 13.9399L64.0328 13.9803C64.3627 13.9824 64.6869 13.8946 64.9704 13.7262C65.254 13.5578 65.4861 13.3153 65.6417 13.0249L72.5944 0.0392228Z" fill="#0A4BB8"/>
<path d="M108.628 27.9998L103.579 20.5671H99.243V25.556C99.2479 25.8801 99.1846 26.2017 99.0573 26.4999C98.9299 26.798 98.7413 27.0662 98.5036 27.287C98.2727 27.517 97.9981 27.6985 97.6959 27.8209C97.3937 27.9433 97.07 28.0041 96.744 27.9998H91.2864V0H104.14C107.947 0 110.974 0.924822 113.218 2.77447C115.463 4.62411 116.585 7.14409 116.585 10.3344C116.585 14.4757 114.749 17.4284 111.076 19.1926L117.146 27.9998H108.628ZM108.577 10.3344C108.577 9.01095 108.16 7.9928 107.327 7.27994C106.494 6.56709 105.262 6.21077 103.629 6.21097H94.3465L99.243 8.45096V14.4071H103.629C105.262 14.4071 106.494 14.0592 107.327 13.3634C108.16 12.6675 108.577 11.6579 108.577 10.3344Z" fill="#0A4BB8"/>
<path d="M131.477 25.1488V0H144.741C149.434 0 153.225 1.26424 156.114 3.79273C159.004 6.32121 160.45 9.7236 160.452 13.9999C160.452 18.2764 159.007 21.6788 156.116 24.2071C153.225 26.7353 149.433 27.9996 144.741 27.9998H134.335C133.579 27.9955 132.855 27.6937 132.32 27.1601C131.785 26.6264 131.483 25.9037 131.478 25.1488M139.436 21.6871H144.435C146.849 21.6871 148.779 20.9998 150.225 19.6254C151.67 18.2509 152.393 16.3672 152.393 13.9744C152.393 11.5817 151.67 9.70659 150.225 8.34891C148.779 6.99123 146.849 6.3125 144.435 6.31271H133.773L139.435 9.36717L139.436 21.6871Z" fill="#0A4BB8"/>
<path d="M186 21.8909V27.9998H167.171C166.697 27.9998 166.227 27.9062 165.789 27.7243C165.35 27.5425 164.952 27.276 164.618 26.9402C164.283 26.6043 164.018 26.2057 163.837 25.7673C163.657 25.3289 163.566 24.8592 163.568 24.3853V0H185.492V6.10924H166.461L171.383 8.50198V10.8437H183.818V16.7492H171.383V21.8909H186Z" fill="#0A4BB8"/>
<path d="M125.407 0V1.41461H124.64V0H121.075V27.9998H124.64V26.5855H125.407V27.9998H128.972V0H125.407ZM125.407 23.7899H124.64V20.9917H125.407V23.7899ZM125.407 18.1961H124.64V15.398H125.407V18.1961ZM125.407 12.6021H124.64V9.80397H125.407V12.6021ZM125.407 7.00835H124.64V4.21023H125.407V7.00835Z" fill="#03002F"/>
</svg>
